# xmcd
# 
# Track frame offsets:
#     150
#     16902
#     33750
#     45517
#     57777
#     73850
#     84675
#     94250
#     100952
#     108737
#     128622
# 
# Disc length: 2041
# 
# Revision: 0
# Processed by: cddbd v1.5.2PL0 Copyright (c) Steve Scherf et al.
# Submitted via: BonkEnc v1.0
# 
DISCID=8b07f70b
DTITLE=Mannheim Steamroller - Christmas
DYEAR=1984
DGENRE=Christmas
TTITLE0=Deck the Halls (Welsh Ayre)
TTITLE1=We Three Kings (John Hopkins 1857)
TTITLE2=Bring A Torch, Jeannette, Isabella (17th Century French)
TTITLE3=Coventry Carol (16th Century English)
TTITLE4=Good King Wenceslas (Traditional English Carol)
TTITLE5=Christmas Sweet: Wassail, Wassail (Ancient English Carol)
TTITLE6=Christmas Sweet: Carol of the Birds (Bas-Quercy)
TTITLE7=Christmas Sweet: I Saw Three Ships (15th Century Legend)
TTITLE8=Christmas Sweet: God Rest Ye Merry Gentlemen (English Carol)
TTITLE9=God Rest Ye, Merry Gentlemen (English Carol)
TTITLE10=Stille Nacht (Franz Gruber 1818)
EXTD=
EXTT0=
EXTT1=
EXTT2=
EXTT3=
EXTT4=
EXTT5=
EXTT6=
EXTT7=
EXTT8=
EXTT9=
EXTT10=
PLAYORDER=
